# xmcd
# 
# Track frame offsets:
#     183
#     53293
#     109570
#     179588
#     225980
# 
# Disc length: 3652
# 
# Revision: 1
# Processed by: cddbd v1.5.2PL0 Copyright (c) Steve Scherf et al.
# Submitted via: fre:ac v1.0.17
# 
DISCID=2e0e4205
DTITLE=Atmospheric Moods - The Tranquil Ocean
DYEAR=1994
DGENRE=Ambient
TTITLE0=Eikogo the Fish
TTITLE1=The Seal
TTITLE2=Voyager
TTITLE3=Saharajah
TTITLE4=Sea of Seeds
EXTD=jAq
EXTT0=
EXTT1=
EXTT2=
EXTT3=
EXTT4=
PLAYORDER=
